<?xml version="1.0" encoding="UTF-8" standalone="no"?>
<!DOCTYPE svg PUBLIC "-//W3C//DTD SVG 1.1//EN" "http://www.w3.org/Graphics/SVG/1.1/DTD/svg11.dtd">
<svg width="100%" height="100%" viewBox="0 0 700 100" version="1.1" xmlns="http://www.w3.org/2000/svg" xmlns:xlink="http://www.w3.org/1999/xlink" xml:space="preserve" xmlns:serif="http://www.serif.com/" style="fill-rule:evenodd;clip-rule:evenodd;stroke-linejoin:round;stroke-miterlimit:2;">
    <g transform="matrix(1,0,0,1,-1440.44,0)">
        <g id="Divider-6" serif:id="Divider 6" transform="matrix(2,0,0,1.81818,-677.56,0)">
            <rect x="1059" y="0" width="350" height="55" style="fill:none;"/>
            <clipPath id="_clip1">
                <rect x="1059" y="0" width="350" height="55"/>
            </clipPath>
            <g clip-path="url(#_clip1)">
                <g transform="matrix(1.00073,0,0,1,-0.841406,0.30205)">
                    <g transform="matrix(3.20025,0,0,3.33062,819.467,-212.459)">
                        <path d="M127.219,73.456L126.706,73.428L124.507,76.164L124.231,76.484L124.203,76.778L124.815,78.768L125.639,79.334L125.876,80.122L122.274,80.081L122.63,79.172L124.078,78.798L123.383,75.307L123.815,72.841L124.413,67.844L123.964,66.714L121.72,64.574L121.753,63.608L125.16,66.518L124.023,75.048L124.415,75.406L126.516,73.117L126.469,72.722C125.669,71.607 125.661,70.004 126.555,68.769C129.579,64.593 132.947,65.007 137.343,64C135.428,65.224 133.461,66.943 132.519,70.406C132.233,71.46 129.001,68.738 128.912,68.82C128.796,68.928 127.164,70.511 128.03,70.679C128.122,70.697 128.431,69.78 129.034,69.866L129.104,69.788L129.067,69.872C129.175,69.894 129.293,69.948 129.42,70.045C130.193,70.635 131.652,71.236 131.808,71.573C132.085,72.174 132.196,71.896 131.733,72.536C130.65,74.032 128.644,74.434 127.219,73.456Z" style="fill:rgb(94,187,72);"/>
                    </g>
                    <g transform="matrix(0.919937,0,0,0.842441,84.798,1.20619)">
                        <g transform="matrix(0.464349,0,0,0.510784,374.297,24.482)">
                            <circle cx="1658.56" cy="24.514" r="8.614" style="fill:rgb(67,176,42);"/>
                        </g>
                        <g transform="matrix(0.290218,0,0,0.31924,671.603,31.9274)">
                            <circle cx="1658.56" cy="24.514" r="8.614" style="fill:rgb(67,176,42);"/>
                        </g>
                        <g transform="matrix(0.116087,0,0,0.127696,966.481,38.2728)">
                            <circle cx="1658.56" cy="24.514" r="8.614" style="fill:rgb(67,176,42);"/>
                        </g>
                        <g transform="matrix(1,0,0,1.1,-381.44,0)">
                            <path d="M1543.54,37.576C1561.72,41.372 1578.99,41.779 1590.46,34.548L1586.34,43.732C1580.67,46.926 1562.43,43.863 1543.25,38.952C1543.44,38.554 1543.54,38.109 1543.54,37.639C1543.54,37.618 1543.54,37.597 1543.54,37.576ZM1539.83,36.758C1540.36,36.88 1540.88,37 1541.41,37.116C1541.49,37.271 1541.54,37.45 1541.54,37.639C1541.54,37.947 1541.41,38.226 1541.21,38.423C1540.61,38.267 1540.02,38.11 1539.42,37.952C1539.39,37.853 1539.38,37.748 1539.38,37.639C1539.38,37.276 1539.56,36.955 1539.83,36.758ZM1532.26,34.842C1533.79,35.261 1535.33,35.663 1536.87,36.047L1536.88,36.051C1536.89,36.08 1536.89,36.11 1536.89,36.139C1536.89,36.519 1536.8,36.879 1536.65,37.202C1535.06,36.767 1533.48,36.322 1531.9,35.871C1531.94,35.497 1532.06,35.147 1532.25,34.841L1532.26,34.842ZM1522.29,31.888C1524.8,32.686 1527.32,33.451 1529.85,34.172C1529.8,34.531 1529.71,34.875 1529.57,35.198C1526.99,34.443 1524.44,33.674 1521.95,32.902C1522.02,32.545 1522.13,32.205 1522.29,31.888ZM1519.96,32.276C1509.03,28.823 1499.51,25.356 1494.01,22.863C1481.96,17.397 1471.08,12.416 1462.44,10.209C1456.94,8.805 1452.39,8.501 1449.1,10.089C1447.18,11.016 1447.77,15.062 1448.88,16.952C1449.98,18.841 1455.73,21.425 1455.73,21.425C1454.81,22.79 1453.49,23.882 1451.97,24.521C1450.91,24.967 1449.8,25.193 1448.65,25.193C1447.5,25.193 1446.39,24.967 1445.33,24.521C1444.32,24.095 1443.39,23.465 1442.61,22.69C1439.9,19.98 1440.18,16.822 1441.8,14.044C1443.29,11.493 1445.96,9.291 1448.2,8.213C1451.84,6.456 1456.87,6.637 1462.96,8.191C1467.49,9.348 1492.52,22.17 1520.29,31.244C1520.15,31.574 1520.04,31.919 1519.96,32.276Z" style="fill:rgb(67,176,42);"/>
                        </g>
                    </g>
                    <g transform="matrix(-0.897358,0,0,-0.897358,2359.31,54.2029)">
                        <g transform="matrix(0.464349,0,0,0.510784,374.297,24.482)">
                            <circle cx="1658.56" cy="24.514" r="8.614" style="fill:rgb(67,176,42);"/>
                        </g>
                        <g transform="matrix(0.290218,0,0,0.31924,671.603,31.9274)">
                            <circle cx="1658.56" cy="24.514" r="8.614" style="fill:rgb(67,176,42);"/>
                        </g>
                        <g transform="matrix(0.116087,0,0,0.127696,966.481,38.2728)">
                            <circle cx="1658.56" cy="24.514" r="8.614" style="fill:rgb(67,176,42);"/>
                        </g>
                        <g transform="matrix(1,0,0,1.1,-381.44,0)">
                            <path d="M1543.54,37.576C1561.72,41.372 1584.99,44.87 1596.46,37.639L1590.46,45.041C1584.79,48.234 1562.43,43.863 1543.25,38.952C1543.44,38.554 1543.54,38.109 1543.54,37.639C1543.54,37.618 1543.54,37.597 1543.54,37.576ZM1539.83,36.758C1540.36,36.88 1540.88,37 1541.41,37.116C1541.49,37.271 1541.54,37.45 1541.54,37.639C1541.54,37.947 1541.41,38.226 1541.21,38.423C1540.61,38.267 1540.02,38.11 1539.42,37.952C1539.39,37.853 1539.38,37.748 1539.38,37.639C1539.38,37.276 1539.56,36.955 1539.83,36.758ZM1532.26,34.842C1533.79,35.261 1535.33,35.663 1536.87,36.047L1536.88,36.051C1536.89,36.08 1536.89,36.11 1536.89,36.139C1536.89,36.519 1536.8,36.879 1536.65,37.202C1535.06,36.767 1533.48,36.322 1531.9,35.871C1531.94,35.497 1532.06,35.147 1532.25,34.841L1532.26,34.842ZM1522.29,31.888C1524.8,32.686 1527.32,33.451 1529.85,34.172C1529.8,34.531 1529.71,34.875 1529.57,35.198C1526.99,34.443 1524.44,33.674 1521.95,32.902C1522.02,32.545 1522.13,32.205 1522.29,31.888ZM1519.96,32.276C1509.03,28.823 1499.51,25.356 1494.01,22.863C1481.96,17.397 1471.08,12.416 1462.44,10.209C1456.94,8.805 1452.39,8.501 1449.1,10.089C1447.18,11.016 1447.77,15.062 1448.88,16.952C1449.98,18.841 1455.73,21.425 1455.73,21.425C1454.81,22.79 1453.49,23.882 1451.97,24.521C1450.91,24.967 1449.8,25.193 1448.65,25.193C1447.5,25.193 1446.39,24.967 1445.33,24.521C1444.32,24.095 1443.39,23.465 1442.61,22.69C1439.9,19.98 1440.18,16.822 1441.8,14.044C1443.29,11.493 1445.96,9.291 1448.2,8.213C1451.84,6.456 1456.87,6.637 1462.96,8.191C1467.49,9.348 1492.52,22.17 1520.29,31.244C1520.15,31.574 1520.04,31.919 1519.96,32.276Z" style="fill:rgb(67,176,42);"/>
                        </g>
                    </g>
                </g>
            </g>
        </g>
    </g>
</svg>
